<?xml version="1.0" standalone="no"?>
<!DOCTYPE svg PUBLIC "-//W3C//DTD SVG 20010904//EN"
 "http://www.w3.org/TR/2001/REC-SVG-20010904/DTD/svg10.dtd">
<svg version="1.0" xmlns="http://www.w3.org/2000/svg"
 width="520.000000pt" height="409.000000pt" viewBox="0 0 520.000000 409.000000"
 preserveAspectRatio="xMidYMid meet">

<g transform="translate(0.000000,409.000000) scale(0.100000,-0.100000)"
fill="#000000" stroke="none">
<path d="M0 3047 l0 -1044 29 5 c32 4 41 28 41 109 0 30 5 45 15 50 21 7 30
-3 18 -19 -6 -7 -14 -41 -18 -76 -4 -35 -12 -65 -19 -67 -6 -2 -23 -6 -38 -9
-21 -5 -28 -12 -28 -31 0 -22 4 -25 38 -25 20 0 46 -8 57 -16 19 -15 18 -16
-15 -10 -81 15 -75 23 -78 -97 l-3 -109 128 7 c102 6 147 4 222 -10 66 -12
121 -16 185 -12 106 6 503 92 528 114 10 9 18 10 22 4 8 -12 -32 -41 -59 -42
-11 0 -15 -3 -9 -5 6 -3 57 7 114 21 94 22 123 25 108 10 -6 -6 -74 -23 -365
-91 -156 -36 -234 -48 -418 -64 -124 -11 -277 -20 -340 -20 l-115 0 0 -350 c0
-236 3 -350 10 -350 6 0 140 -20 298 -45 583 -90 562 -86 605 -123 31 -27 18
-32 -19 -7 -20 14 -40 25 -45 25 -15 0 -814 131 -832 136 -16 5 -18 -1 -15
-63 l3 -68 245 -41 c258 -44 274 -48 302 -72 29 -25 20 -34 -10 -12 -25 19
-148 45 -510 107 l-32 6 0 -367 0 -366 2595 0 2595 0 0 457 c0 525 3 506 -76
471 -25 -10 -50 -17 -57 -14 -8 3 -7 5 3 5 9 1 16 13 17 32 2 26 0 29 -12 19
-8 -7 -12 -16 -9 -21 3 -5 -6 -9 -20 -9 -14 0 -28 -5 -31 -11 -4 -6 -13 -8
-21 -5 -7 3 -16 1 -19 -4 -4 -6 4 -10 17 -11 13 0 17 -3 11 -6 -18 -7 -16 -23
2 -23 8 0 15 5 15 10 0 6 5 10 11 10 6 0 9 -6 6 -14 -3 -7 0 -19 6 -25 9 -9 8
-14 -3 -21 -23 -15 -30 -12 -30 10 0 14 -6 20 -22 19 -13 0 -17 -3 -11 -6 20
-7 15 -27 -9 -38 -38 -17 -34 -35 9 -36 l38 0 -59 -23 c-38 -15 -54 -26 -45
-30 8 -4 6 -5 -6 -3 -17 3 -54 -20 -44 -27 41 -27 58 -31 99 -25 25 4 63 7 85
7 31 0 22 -3 -35 -14 -76 -14 -396 -62 -595 -90 -136 -19 -142 -21 -127 -36
13 -13 16 -90 5 -102 -5 -4 -23 -51 -40 -104 -18 -53 -30 -81 -27 -62 4 19 8
69 9 110 2 41 8 94 13 118 12 50 0 61 -46 44 -15 -6 -66 -14 -114 -17 -49 -4
-91 -12 -95 -18 -4 -7 -26 -75 -49 -151 l-41 -139 -6 73 c-3 41 -4 76 -2 78 3
3 11 -1 20 -8 17 -14 14 -18 39 72 24 85 25 83 -56 62 -19 -5 -38 -53 -38 -95
0 -17 -5 -29 -12 -29 -7 0 -24 -3 -38 -5 -21 -5 -22 -4 -5 3 16 7 20 19 21 65
l0 55 -30 -4 c-17 -2 -78 -11 -136 -19 -58 -9 -220 -31 -360 -50 -140 -19
-257 -38 -261 -43 -4 -4 -14 -31 -24 -59 -9 -29 -22 -53 -28 -53 -6 0 -29 20
-53 45 -48 52 -59 54 -213 30 -90 -14 -217 -31 -966 -134 -377 -52 -556 -73
-563 -66 -3 3 -1 5 5 5 6 0 111 15 234 34 668 103 767 118 801 123 48 7 39 23
-12 23 -32 0 -39 4 -42 23 -2 17 -9 22 -30 21 -17 -1 -28 4 -28 12 0 8 -16 14
-42 16 -34 2 -42 7 -40 20 1 10 -10 24 -27 34 l-30 18 20 28 c11 15 27 28 35
28 8 0 12 4 9 10 -3 5 -21 9 -38 7 -23 -1 -31 2 -29 12 2 7 -6 20 -18 28 -11
8 -20 21 -20 29 0 21 -37 54 -60 54 -23 0 -27 28 -8 49 11 11 11 14 1 18 -7 3
-13 13 -13 24 0 14 7 19 25 19 14 0 25 4 25 9 0 14 -28 21 -60 14 -28 -5 -30
-3 -30 25 0 21 -6 31 -20 35 -26 7 -26 27 0 27 11 0 20 5 20 11 0 7 11 9 30 6
25 -6 30 -3 30 13 0 11 -4 20 -10 20 -18 0 -10 19 11 25 17 6 19 9 8 16 -11 7
-9 9 7 9 12 0 24 7 28 15 3 8 1 14 -5 12 -6 -1 -16 7 -22 18 -17 29 -28 35
-64 35 -30 0 -33 3 -33 29 0 16 6 31 12 33 8 3 13 23 13 51 0 37 -2 44 -13 34
-14 -11 -32 5 -32 31 0 6 -6 12 -12 12 -7 1 0 8 15 16 15 8 25 19 22 25 -4 5
-3 9 2 8 4 -1 19 -1 33 0 l25 2 -25 11 -25 11 33 9 c35 10 43 28 12 28 -26 0
-26 17 0 25 11 3 20 11 20 16 0 5 11 9 24 9 13 0 37 7 52 16 29 15 28 15 -26
10 -30 -3 -107 -8 -171 -12 l-116 -7 -13 32 c-8 20 -18 30 -26 27 -8 -3 -14 1
-14 8 0 8 7 17 16 20 25 10 84 7 84 -4 0 -5 -11 -10 -25 -10 -26 0 -29 -7 -19
-34 6 -16 48 -21 79 -10 13 6 14 9 3 16 -9 7 -7 8 9 5 13 -3 26 -1 29 4 3 5 0
9 -7 9 -7 0 -10 11 -7 30 4 24 1 30 -14 30 -15 0 -18 -5 -13 -22 l6 -23 -20
24 c-12 13 -21 29 -21 37 0 8 -7 14 -15 14 -8 0 -15 -7 -15 -15 0 -8 -4 -15
-10 -15 -18 0 -11 29 12 50 12 11 28 18 35 16 17 -7 27 12 14 28 -13 16 4 36
34 37 17 1 16 2 -5 8 l-25 7 28 6 c15 3 30 1 33 -3 3 -5 21 -9 40 -9 27 0 34
4 34 19 0 17 -4 18 -30 11 -18 -5 -32 -5 -35 1 -4 5 -1 9 4 9 6 0 11 6 11 13
0 19 71 38 89 24 11 -9 15 -9 18 1 4 9 151 12 694 12 l689 0 0 28 c0 15 -6 34
-12 41 -11 10 -7 10 16 1 16 -6 31 -8 34 -5 3 3 0 5 -6 5 -8 0 -12 30 -12 100
0 55 3 100 8 100 4 0 18 -7 30 -16 20 -14 22 -23 22 -105 0 -78 -2 -89 -17
-90 -27 -1 11 -15 63 -23 l42 -7 1 97 c2 104 4 114 27 114 13 0 15 -17 12
-105 -2 -61 1 -106 7 -108 5 -2 20 -1 33 1 18 3 20 7 10 13 -9 6 -14 35 -15
98 -2 83 0 91 19 97 35 11 43 -11 41 -112 l-3 -94 28 0 27 0 0 99 c0 55 2 102
5 104 3 3 22 8 43 12 l37 7 0 -101 c0 -82 3 -101 15 -101 11 0 15 20 17 102 3
101 3 103 30 116 37 17 44 34 52 121 4 40 10 79 12 86 4 8 -13 6 -53 -8 -43
-15 -89 -21 -178 -24 -169 -4 -165 -6 -165 72 0 35 5 67 10 70 6 3 10 21 10
40 l0 33 78 -1 c72 -2 77 -3 80 -25 2 -13 -2 -30 -8 -38 -11 -12 -7 -14 21
-13 19 1 26 3 17 6 -13 3 -18 15 -18 39 0 30 3 34 28 34 15 1 60 7 100 14 68
11 72 11 72 -6 0 -17 10 -18 168 -13 99 3 173 1 182 -5 11 -7 1 -10 -35 -11
-49 -1 -49 -1 -15 -10 19 -4 42 -6 50 -3 8 3 11 2 7 -2 -4 -4 10 -17 30 -29
38 -21 57 -55 31 -55 -9 0 -24 -28 -38 -67 -12 -38 -31 -86 -41 -107 -19 -40
-18 -59 2 -39 6 6 19 9 28 6 13 -5 14 -3 4 8 -15 16 -17 33 -3 24 6 -3 13 1
16 10 5 12 9 14 14 4 13 -20 -11 -61 -32 -56 -10 3 -18 0 -18 -7 0 -18 -33
-46 -54 -46 -9 0 -16 -6 -15 -12 3 -28 -2 -34 -28 -31 -38 5 -58 -9 -45 -33 5
-9 16 -19 23 -21 8 -2 55 -11 104 -22 50 -10 83 -21 75 -24 -8 -4 -24 -5 -34
-4 -10 1 -21 -4 -23 -10 -3 -8 5 -13 21 -13 24 0 26 -4 26 -40 0 -35 -3 -40
-24 -40 -15 0 -26 -7 -29 -20 -4 -15 -14 -20 -36 -20 -34 0 -121 -21 -121 -30
0 -8 76 -30 106 -30 17 0 28 6 31 20 4 16 14 20 45 20 l41 0 -6 -35 c-3 -19
-2 -35 3 -35 19 0 22 -41 4 -55 -18 -13 -18 -14 -1 -33 16 -17 23 -19 48 -10
36 12 42 8 34 -24 -5 -19 -17 -29 -48 -38 -28 -8 -42 -9 -45 -2 -2 6 -10 8
-18 5 -7 -3 -11 -9 -8 -14 3 -5 10 -7 15 -4 5 4 9 1 9 -6 0 -6 -8 -9 -20 -6
-11 3 -20 1 -20 -4 0 -12 67 -11 75 1 4 6 28 9 53 8 26 -1 71 1 100 6 42 6 52
5 52 -6 0 -20 47 -42 53 -25 2 8 9 6 21 -6 10 -9 23 -17 31 -17 17 0 25 33 13
54 -6 11 -5 16 3 16 28 0 -15 30 -45 31 -30 1 -30 1 -6 9 14 4 -10 6 -58 4
-80 -4 -82 -4 -64 14 10 10 25 19 33 20 77 10 99 15 99 23 0 5 -7 9 -15 9 -8
0 -15 4 -15 8 0 5 13 7 29 4 30 -4 52 15 32 27 -7 5 0 16 20 30 18 13 29 17
25 10 -5 -10 -4 -9 6 1 9 11 29 14 68 12 53 -2 54 -2 35 15 -12 10 -21 28 -21
41 0 24 11 30 19 10 3 -9 11 -6 26 10 12 12 29 22 38 22 8 0 30 9 48 20 24 15
49 20 87 19 60 -2 110 6 151 22 32 13 36 29 7 29 -11 0 -19 5 -17 12 1 6 -9
15 -23 19 -14 4 -54 17 -90 28 -36 11 -84 23 -106 27 -56 8 -73 19 -56 36 18
18 15 31 -8 25 -11 -3 -20 -2 -20 2 0 15 25 31 47 31 17 0 23 6 23 21 0 22
-22 49 -40 49 -15 0 -4 51 13 62 7 4 -33 7 -88 7 -263 -1 -268 -1 -320 23 -27
13 -53 27 -57 33 -9 13 11 25 42 25 32 0 16 14 -40 33 -145 49 -194 94 -100
91 108 -4 199 -23 300 -65 98 -40 111 -43 202 -43 54 -1 98 2 98 7 0 4 5 7 11
7 5 0 8 -4 5 -9 -4 -5 3 -7 14 -4 11 3 20 7 20 9 0 2 -21 12 -46 24 -32 14
-69 20 -118 21 -54 0 -88 7 -141 28 -121 49 -101 56 166 57 130 0 241 4 247 8
6 4 9 13 6 20 -4 10 11 13 63 14 37 0 76 1 86 1 16 1 17 45 17 781 l0 780
-419 0 -419 0 -6 -31 c-3 -17 -6 -67 -6 -110 0 -43 -4 -80 -8 -83 -5 -3 -223
-6 -486 -7 l-478 -2 1 117 c2 99 0 116 -13 116 -14 0 -16 -19 -16 -130 l0
-130 507 2 508 3 6 30 c7 30 7 30 8 -6 l1 -36 -347 -6 c-190 -4 -427 -7 -526
-7 l-179 0 7 140 8 140 -1667 0 -1666 0 0 -1043z m4377 901 c-2 -18 -4 -6 -4
27 0 33 2 48 4 33 2 -15 2 -42 0 -60z m-3847 -368 l0 -160 105 0 105 0 0 -30
0 -30 -150 0 -150 0 0 190 0 190 45 0 45 0 0 -160z m568 -23 c39 -100 72 -186
72 -190 0 -4 -21 -7 -46 -7 -44 0 -46 1 -61 40 l-16 40 -74 0 -75 0 -15 -40
c-16 -39 -17 -40 -64 -40 l-48 0 23 58 c13 31 47 117 76 190 l53 132 51 0 51
0 73 -183z m372 168 c35 -18 70 -61 70 -86 0 -15 -8 -19 -39 -19 -30 0 -42 5
-55 25 -33 50 -141 39 -141 -15 0 -23 7 -27 103 -51 113 -28 140 -46 148 -100
6 -44 -21 -90 -69 -112 -43 -21 -154 -23 -201 -3 -37 16 -76 60 -76 87 0 16 8
19 45 19 33 0 45 -4 45 -15 0 -34 101 -51 149 -26 52 28 13 61 -103 86 -107
23 -134 51 -126 130 3 32 29 66 63 80 43 19 151 19 187 0z m823 1 c49 -20 72
-52 72 -98 0 -31 -6 -45 -27 -63 -26 -22 -26 -24 -8 -40 12 -11 20 -34 22 -73
2 -31 8 -65 12 -74 7 -16 2 -18 -42 -18 -55 0 -61 8 -62 80 0 55 -11 63 -84
68 l-66 4 0 -76 0 -76 -45 0 -45 0 0 190 0 190 120 0 c79 0 132 -5 153 -14z
m-353 -26 l0 -29 -112 -3 -113 -3 -3 -37 -3 -38 105 0 106 0 0 -35 0 -35 -105
0 -105 0 0 -45 0 -45 120 0 120 0 0 -35 0 -35 -165 0 -165 0 0 185 0 185 160
0 160 0 0 -30z m2173 -183 c-3 -15 4 -30 21 -46 14 -14 26 -30 26 -37 0 -7 6
-14 12 -16 8 -3 12 -19 10 -42 -4 -39 16 -104 27 -88 8 12 81 23 81 13 0 -5
-9 -20 -21 -35 -25 -32 -19 -44 21 -38 23 3 30 0 30 -12 0 -22 -34 -30 -195
-42 -68 -5 -77 -4 -63 8 14 11 18 40 24 186 5 124 10 172 19 172 7 0 10 -9 8
-23z m-1148 -137 c3 -5 -1 -10 -10 -10 -9 0 -13 5 -10 10 3 6 8 10 10 10 2 0
7 -4 10 -10z m45 -40 c0 -5 -4 -10 -10 -10 -5 0 -10 5 -10 10 0 6 5 10 10 10
6 0 10 -4 10 -10z m961 -261 c-3 -95 -17 -129 -56 -129 l-25 0 0 104 0 105 33
4 c17 2 36 3 41 2 5 0 8 -39 7 -86z m-637 75 c20 -8 21 -43 1 -58 -8 -7 -17
-37 -21 -76 -11 -112 -22 -98 -30 38 -5 97 -5 102 14 102 11 0 27 -3 36 -6z
m520 -46 c10 -90 7 -145 -10 -162 -10 -10 -33 -16 -62 -16 -67 0 -76 9 -67 61
4 24 8 69 9 99 l1 55 45 6 c25 3 52 7 61 7 12 2 18 -11 23 -50z m-324 7 c0
-19 -4 -35 -10 -35 -6 0 -10 -30 -10 -69 0 -61 -3 -70 -20 -76 -11 -3 -30 -3
-41 0 -20 7 -21 12 -16 72 3 36 10 70 16 76 6 6 11 24 11 39 0 25 3 28 35 28
33 0 35 -2 35 -35z m135 -52 c-9 -129 -10 -133 -44 -133 -55 0 -61 7 -61 70 0
36 5 62 13 69 8 6 12 23 9 40 -4 31 5 38 61 40 l28 1 -6 -87z m-2945 32 c36
-19 67 -55 75 -87 7 -27 6 -28 -38 -28 -37 0 -47 4 -52 20 -7 23 -53 50 -85
50 -33 0 -75 -26 -88 -55 -7 -14 -12 -53 -12 -86 0 -54 3 -64 29 -90 21 -21
39 -29 64 -29 49 0 66 8 83 41 13 26 20 29 60 29 42 0 45 -2 39 -22 -12 -41
-40 -72 -86 -96 -83 -44 -206 -17 -256 56 -75 111 -16 282 108 312 42 10 125
2 159 -15z m2145 14 c43 -12 115 -76 115 -103 0 -22 -88 -23 -97 -1 -7 21 -55
45 -88 45 -68 0 -115 -57 -115 -139 0 -78 42 -121 120 -121 33 0 48 6 71 29
41 41 37 51 -22 51 l-50 0 3 33 3 32 88 3 87 3 0 -106 0 -105 -29 0 c-20 0
-30 6 -34 20 -5 20 -6 20 -44 -6 -34 -23 -46 -25 -105 -22 -57 3 -73 8 -105
34 -58 47 -77 87 -76 159 1 68 16 106 61 148 54 51 135 68 217 46z m-1905
-137 c0 -164 7 -182 73 -182 23 0 47 4 54 8 24 15 33 66 33 188 l0 124 46 0
46 0 -4 -154 c-3 -149 -4 -155 -28 -182 -34 -37 -80 -54 -143 -54 -64 0 -137
33 -153 70 -6 14 -14 91 -17 173 l-6 147 49 0 50 0 0 -138z m640 103 l0 -35
-60 0 -59 0 -3 -152 -3 -153 -47 -3 -48 -3 0 155 0 156 -60 0 -60 0 0 35 0 35
170 0 170 0 0 -35z m360 0 l0 -35 -60 0 -60 0 0 -155 0 -155 -50 0 -50 0 0
155 0 155 -60 0 -60 0 0 35 0 35 170 0 170 0 0 -35z m140 -155 l0 -190 -45 0
-45 0 0 190 0 190 45 0 45 0 0 -190z m257 62 l82 -127 1 128 0 127 45 0 45 0
0 -190 0 -190 -48 0 -48 0 -85 132 -84 133 -3 -133 -3 -132 -39 0 -40 0 0 190
0 190 48 0 47 0 82 -128z m1687 -361 c4 -5 -13 -16 -36 -23 -31 -11 -44 -21
-46 -36 -3 -17 -10 -22 -35 -22 l-32 1 25 20 c72 58 113 78 124 60z m-671 -73
c4 -10 7 -10 14 -1 7 10 14 9 31 -3 34 -24 26 -35 -20 -32 -36 2 -44 7 -46 26
-4 23 13 31 21 10z m384 -32 c-7 -18 -62 -22 -86 -7 -11 7 -5 14 25 29 33 17
41 18 53 7 7 -7 11 -21 8 -29z m-389 -32 c33 -5 44 -12 48 -30 8 -30 -2 -44
-29 -44 -21 0 -22 -4 -19 -61 5 -74 -4 -85 -52 -69 l-36 12 0 105 c0 104 0
105 23 100 12 -4 41 -9 65 -13z m-2817 -149 l46 -140 45 140 46 140 46 3 c25
2 46 -1 46 -6 0 -4 -15 -46 -34 -93 -18 -46 -50 -128 -70 -181 l-38 -98 -43 0
-43 0 -28 73 c-15 39 -47 123 -70 185 -24 63 -44 116 -44 119 0 2 21 3 48 1
l47 -3 46 -140z m955 126 c38 -17 84 -72 84 -100 0 -6 -18 -11 -43 -11 -36 0
-47 5 -65 30 -28 37 -78 48 -120 26 -40 -21 -67 -89 -58 -147 9 -59 23 -79 63
-95 46 -20 97 -4 118 37 14 26 21 29 61 29 42 0 45 -2 39 -22 -26 -89 -124
-135 -240 -114 -43 8 -103 59 -121 103 -41 97 5 231 91 269 44 20 142 17 191
-5z m454 -16 l0 -35 -60 0 -60 0 0 -155 0 -155 -51 0 -52 0 5 155 6 155 -64 0
-64 0 0 35 0 35 170 0 170 0 0 -35z m336 16 c73 -33 112 -110 101 -203 -12
-95 -66 -153 -159 -168 -104 -17 -201 27 -234 107 -17 39 -18 131 -3 170 14
37 57 82 94 99 45 20 152 17 201 -5z m443 6 c71 -25 98 -112 50 -163 -19 -20
-20 -26 -8 -40 7 -9 16 -42 20 -73 3 -31 9 -64 14 -73 6 -16 1 -18 -49 -18
l-56 0 0 44 c0 90 -19 106 -112 97 l-38 -3 0 -69 0 -69 -50 0 -50 0 0 98 c0
55 3 140 6 190 l7 92 116 -1 c64 0 131 -5 150 -12z m-1589 -27 l0 -30 -110 0
-110 0 0 -40 0 -40 100 0 100 0 0 -35 0 -35 -100 0 -100 0 0 -45 0 -45 115 0
115 0 0 -35 0 -35 -160 0 -160 0 0 185 0 185 155 0 155 0 0 -30z m2270 -151
c0 -11 -7 -19 -16 -19 -11 0 -14 5 -10 16 3 9 6 20 6 25 0 6 5 7 10 4 6 -3 10
-15 10 -26z m806 -81 c-18 -26 -22 -17 -5 14 6 11 13 17 16 15 3 -3 -2 -16
-11 -29z m784 -288 c-8 -5 -17 -7 -19 -4 -3 3 1 9 9 14 8 5 17 7 19 4 3 -3 -1
-9 -9 -14z m-80 -14 c0 -2 -15 -6 -34 -8 -19 -2 -32 0 -30 4 5 8 64 12 64 4z
m-270 -76 c0 -5 7 -10 15 -10 8 0 15 5 15 10 0 6 5 10 10 10 7 0 7 -7 -1 -21
-8 -16 -8 -23 1 -29 19 -11 -6 -23 -31 -15 -17 6 -19 9 -8 16 12 7 12 9 0 9
-8 0 -11 3 -8 7 4 3 2 12 -4 20 -9 9 -8 13 0 13 6 0 11 -4 11 -10z m-289 -253
c-10 -9 -11 -8 -5 6 3 10 9 15 12 12 3 -3 0 -11 -7 -18z m-3687 -76 c102 -50
186 -95 186 -100 0 -6 -1 -11 -2 -11 -2 0 -81 38 -175 84 -95 47 -188 89 -207
94 -39 11 -184 -1 -216 -18 -27 -15 -36 -7 -14 11 18 15 86 25 180 28 58 1 72
-4 248 -88z m3876 29 c0 -5 -2 -10 -4 -10 -3 0 -8 5 -11 10 -3 6 -1 10 4 10 6
0 11 -4 11 -10z m-3932 -69 c111 -63 142 -84 142 -101 0 -5 -26 9 -57 29 -32
21 -94 57 -137 80 -78 40 -81 41 -182 41 -63 0 -105 4 -110 11 -4 8 29 10 112
7 l119 -3 113 -64z m1192 -57 c0 -2 -7 -4 -15 -4 -8 0 -15 4 -15 10 0 5 7 7
15 4 8 -4 15 -8 15 -10z m-1080 -95 c0 -5 -24 -21 -52 -33 -29 -13 -82 -38
-117 -55 -36 -17 -66 -29 -68 -28 -8 8 38 37 117 72 47 21 89 42 95 47 13 11
25 10 25 -3z m130 -96 c0 -5 -48 -57 -105 -117 -101 -104 -106 -108 -146 -108
-23 1 -46 5 -51 10 -6 6 6 8 34 5 l43 -5 105 110 c100 104 120 122 120 105z
m925 -4 c11 -17 -1 -21 -15 -4 -8 9 -8 15 -2 15 6 0 14 -5 17 -11z m40 -209
c3 -5 -1 -10 -10 -10 -9 0 -13 5 -10 10 3 6 8 10 10 10 2 0 7 -4 10 -10z
m3285 -94 c0 -9 -30 -14 -35 -6 -4 6 3 10 14 10 12 0 21 -2 21 -4z m10 -36 c0
-5 -15 -10 -32 -10 -25 0 -29 3 -18 10 20 13 50 13 50 0z m-4195 -240 c3 -5 1
-10 -4 -10 -6 0 -11 5 -11 10 0 6 2 10 4 10 3 0 8 -4 11 -10z m-37 -101 c-72
-37 -268 -54 -296 -26 -14 15 -13 16 20 7 42 -12 231 13 263 34 11 7 26 11 34
8 9 -3 1 -11 -21 -23z m2425 -196 c-7 -2 -19 -2 -25 0 -7 3 -2 5 12 5 14 0 19
-2 13 -5z m-2190 -170 c-7 -2 -19 -2 -25 0 -7 3 -2 5 12 5 14 0 19 -2 13 -5z
m-68 -13 c-16 -4 -46 -8 -65 -8 l-35 0 30 8 c17 4 46 8 65 8 l35 0 -30 -8z"/>
<path d="M951 3585 c-30 -80 -29 -85 24 -85 25 0 45 4 45 8 0 12 -41 132 -45
132 -2 0 -13 -25 -24 -55z"/>
<path d="M2110 3620 l0 -50 54 0 c78 0 106 13 106 48 0 43 -17 52 -92 52 l-68
0 0 -50z"/>
<path d="M2150 2407 c-78 -27 -96 -164 -30 -225 29 -27 75 -34 114 -18 50 21
66 51 66 123 0 54 -4 67 -27 93 -33 35 -74 44 -123 27z"/>
<path d="M2560 2365 c0 -39 3 -45 25 -51 36 -9 116 8 128 28 8 12 8 24 -1 42
-11 24 -16 26 -82 26 l-70 0 0 -45z"/>
<path d="M3483 4078 c-19 -26 -83 -159 -83 -173 0 -13 25 -15 154 -15 85 0
157 4 160 9 8 13 -66 182 -82 188 -22 9 -24 -4 -7 -36 9 -18 13 -36 10 -41 -3
-6 -2 -10 4 -10 6 0 20 -18 31 -40 l20 -40 -47 0 c-27 0 -85 -3 -130 -7 -46
-3 -83 -2 -83 2 0 4 20 46 46 91 31 58 41 84 31 84 -8 0 -19 -6 -24 -12z"/>
<path d="M3740 4082 c0 -6 43 -10 95 -11 52 -1 95 2 95 7 0 6 -43 10 -95 11
-53 1 -95 -2 -95 -7z"/>
<path d="M3950 4078 c0 -4 32 -8 70 -8 42 0 70 4 70 11 0 6 -26 9 -70 8 -38
-1 -70 -6 -70 -11z"/>
<path d="M4100 4080 c0 -6 43 -10 110 -9 61 0 110 5 110 10 0 5 -49 9 -110 9
-66 0 -110 -4 -110 -10z"/>
<path d="M3533 4045 c1 -5 -3 -9 -10 -8 -9 2 -10 -4 -3 -21 5 -13 7 -26 5 -27
-1 -2 2 -9 9 -15 19 -17 52 1 64 36 7 18 7 28 2 25 -6 -4 -10 0 -10 7 0 9 -11
14 -29 13 -16 0 -29 -4 -28 -10z"/>
<path d="M3750 4020 c0 -15 10 -18 60 -19 53 0 60 2 60 19 0 18 -6 20 -60 19
-50 -1 -60 -5 -60 -19z"/>
<path d="M3887 4033 c-4 -3 -7 -12 -7 -19 0 -9 29 -12 114 -12 103 0 113 2
109 17 -4 15 -19 18 -107 19 -56 1 -106 -1 -109 -5z"/>
<path d="M4131 4018 c0 -13 3 -17 6 -9 5 11 7 11 14 0 6 -11 11 -11 20 -2 15
15 3 33 -22 33 -13 0 -19 -7 -18 -22z"/>
<path d="M4190 4020 c0 -19 5 -21 57 -18 46 2 59 7 61 21 3 13 -3 17 -26 17
-17 0 -33 -6 -35 -12 -4 -10 -6 -10 -6 0 -1 6 -12 12 -26 12 -19 0 -25 -5 -25
-20z"/>
<path d="M4158 3972 c-30 -2 -48 -8 -48 -15 0 -17 51 -20 63 -5 6 9 7 8 3 -4
-4 -14 2 -16 43 -15 37 2 47 5 43 16 -4 10 0 13 16 9 14 -4 22 -2 22 7 0 15
-51 8 -62 -9 -6 -8 -8 -8 -8 0 0 16 -17 20 -72 16z"/>
<path d="M3800 3956 c0 -13 20 -26 41 -26 5 0 9 9 9 20 0 22 -15 27 -23 8 -4
-10 -6 -10 -6 0 -1 17 -21 15 -21 -2z"/>
<path d="M3860 3949 c0 -11 4 -18 10 -14 5 3 7 12 3 20 -7 21 -13 19 -13 -6z"/>
<path d="M3900 3950 c0 -13 7 -20 20 -20 13 0 20 7 20 20 0 13 -7 20 -20 20
-13 0 -20 -7 -20 -20z"/>
<path d="M3986 3954 c-6 -16 -8 -16 -16 -4 -8 13 -10 13 -10 0 0 -12 13 -16
51 -18 35 -1 48 1 43 9 -4 8 0 9 15 4 15 -4 21 -2 21 8 0 9 -13 14 -40 15 -26
1 -40 -2 -40 -11 0 -9 -2 -9 -9 1 -6 11 -10 10 -15 -4z"/>
<path d="M3770 3945 c0 -8 4 -15 10 -15 5 0 7 7 4 15 -4 8 -8 15 -10 15 -2 0
-4 -7 -4 -15z"/>
<path d="M5080 2511 c0 -10 26 -9 36 2 4 4 -2 7 -14 7 -12 0 -22 -4 -22 -9z"/>
<path d="M5175 2510 c3 -5 8 -10 11 -10 2 0 4 5 4 10 0 6 -5 10 -11 10 -5 0
-7 -4 -4 -10z"/>
<path d="M4615 2462 c20 -20 84 -32 156 -31 41 0 89 -4 107 -9 19 -6 32 -7 32
-1 0 5 -6 10 -12 11 -7 1 12 4 42 7 44 5 24 8 -95 14 -82 4 -170 10 -195 13
-29 4 -41 2 -35 -4z"/>
<path d="M4300 2424 c0 0 45 -20 100 -44 55 -24 100 -49 100 -56 0 -8 -15 -14
-37 -16 -36 -3 -37 -4 -16 -16 25 -14 348 -21 361 -7 4 4 1 10 -6 12 -6 3 -10
9 -7 14 3 5 -27 8 -67 6 -68 -2 -81 2 -197 51 -91 39 -138 54 -178 56 -29 1
-53 1 -53 0z"/>
<path d="M3513 2393 c9 -2 25 -2 35 0 9 3 1 5 -18 5 -19 0 -27 -2 -17 -5z"/>
<path d="M4200 2360 c0 -5 -6 -8 -12 -6 -7 1 -10 1 -5 -1 13 -8 7 -43 -8 -43
-8 0 -15 -4 -15 -10 0 -21 38 -10 43 13 2 12 8 30 12 40 4 10 3 17 -4 17 -6 0
-11 -4 -11 -10z"/>
<path d="M4987 2144 c-13 -14 3 -20 42 -16 23 2 41 8 41 13 0 10 -73 12 -83 3z"/>
<path d="M5098 2143 c7 -3 16 -2 19 1 4 3 -2 6 -13 5 -11 0 -14 -3 -6 -6z"/>
<path d="M4928 2123 c7 -3 16 -2 19 1 4 3 -2 6 -13 5 -11 0 -14 -3 -6 -6z"/>
<path d="M4820 2040 c0 -6 7 -10 15 -10 8 0 15 2 15 4 0 2 -7 6 -15 10 -8 3
-15 1 -15 -4z"/>
<path d="M3375 1821 c-3 -5 -1 -12 5 -16 18 -11 10 -23 -11 -18 -32 9 -19 -18
17 -37 21 -11 63 -15 161 -15 114 0 135 3 150 18 15 15 16 19 4 27 -13 7 -13
11 -1 27 13 17 13 16 -7 -1 -13 -10 -20 -23 -16 -29 3 -5 1 -7 -5 -3 -6 3 -17
-1 -25 -9 -21 -20 -65 -21 -48 -1 9 11 8 15 -6 20 -10 4 -20 1 -25 -9 -12 -20
-44 -19 -52 2 -6 14 -8 14 -21 -3 -15 -19 -15 -19 -31 1 -8 11 -18 25 -22 31
-10 15 -59 26 -67 15z"/>
<path d="M5040 1820 c0 -12 8 -12 35 0 18 8 17 9 -7 9 -16 1 -28 -3 -28 -9z"/>
<path d="M3600 1799 c0 -5 5 -7 10 -4 6 3 10 8 10 11 0 2 -4 4 -10 4 -5 0 -10
-5 -10 -11z"/>
<path d="M1915 1770 c4 -6 11 -8 16 -5 14 9 11 15 -7 15 -8 0 -12 -5 -9 -10z"/>
<path d="M1875 1760 c-3 -6 1 -7 9 -4 18 7 21 14 7 14 -6 0 -13 -4 -16 -10z"/>
<path d="M978 1753 c7 -3 16 -2 19 1 4 3 -2 6 -13 5 -11 0 -14 -3 -6 -6z"/>
<path d="M771 1715 c-220 -47 -310 -52 -445 -25 -105 21 -142 22 -283 4 -37
-4 -43 -9 -43 -28 0 -22 5 -24 80 -30 131 -12 532 28 720 71 85 19 157 37 159
39 9 9 -41 0 -188 -31z"/>
<path d="M4175 1730 c-3 -5 -2 -10 4 -10 5 0 13 5 16 10 3 6 2 10 -4 10 -5 0
-13 -4 -16 -10z"/>
<path d="M2120 1705 c0 -8 7 -15 16 -15 14 0 14 3 4 15 -7 8 -14 15 -16 15 -2
0 -4 -7 -4 -15z"/>
<path d="M2010 1698 c0 -6 7 -20 17 -30 22 -24 -1 -24 -26 1 -25 25 -69 34
-106 21 l-30 -10 35 4 35 5 -28 -13 c-16 -7 -32 -18 -36 -25 -5 -8 -15 -4 -34
15 -14 14 -32 24 -39 21 -8 -3 -6 -6 5 -6 10 -1 17 -7 14 -13 -2 -7 -11 -12
-20 -12 -9 1 -15 -2 -12 -6 3 -5 1 -11 -5 -15 -6 -4 -8 -11 -5 -16 4 -5 1 -9
-5 -9 -6 0 -10 6 -8 13 4 19 -21 57 -39 57 -14 0 -14 -2 1 -25 21 -32 21 -35
-11 -36 -16 0 -22 -3 -15 -6 6 -2 10 -8 7 -13 -5 -9 18 -7 102 5 45 6 54 5 75
-14 19 -19 21 -23 8 -32 -8 -5 -30 -8 -47 -5 -18 3 -35 0 -38 -5 -4 -5 5 -9
19 -9 32 0 34 -17 4 -30 -16 -7 3 -8 62 -4 98 6 123 12 115 25 -4 5 -1 9 5 9
6 0 8 5 5 10 -3 6 -17 10 -31 10 -17 0 -24 5 -24 20 0 17 7 20 43 20 68 0 117
11 117 26 0 8 5 14 10 14 10 0 14 -15 11 -34 -2 -10 23 8 52 36 13 13 14 18 4
18 -7 0 -17 -4 -22 -8 -6 -5 -33 -7 -61 -4 -42 3 -54 8 -64 27 -14 26 -40 41
-40 23z"/>
<path d="M2810 1706 c0 -2 8 -10 18 -17 15 -13 16 -12 3 4 -13 16 -21 21 -21
13z"/>
<path d="M3380 1695 c0 -3 11 -26 25 -52 13 -27 26 -55 29 -64 6 -21 89 -33
131 -19 28 9 27 10 -13 6 -50 -5 -115 11 -106 25 3 5 -9 32 -26 59 -30 46 -40
58 -40 45z"/>
<path d="M3430 1665 c34 -89 67 -108 57 -32 -6 41 -19 57 -49 57 -15 0 -16 -4
-8 -25z"/>
<path d="M2756 1662 c-3 -6 -1 -14 5 -17 15 -10 25 3 12 16 -7 7 -13 7 -17 1z"/>
<path d="M2208 1633 c7 -3 16 -2 19 1 4 3 -2 6 -13 5 -11 0 -14 -3 -6 -6z"/>
<path d="M2066 1561 c-7 -11 22 -60 37 -61 13 0 7 24 -12 49 -12 16 -21 20
-25 12z"/>
<path d="M3090 1544 c0 -12 50 -59 50 -47 0 5 -11 20 -25 33 -14 13 -25 19
-25 14z"/>
<path d="M2643 1475 c23 -35 37 -44 37 -22 -1 16 -35 57 -49 57 -5 0 0 -16 12
-35z"/>
<path d="M2014 1481 c3 -5 19 -11 35 -13 21 -3 28 -1 24 9 -3 7 -18 13 -35 13
-16 0 -27 -4 -24 -9z"/>
<path d="M3050 1475 c0 -10 81 -88 86 -83 2 3 -14 24 -37 47 -41 40 -49 46
-49 36z"/>
<path d="M4355 1460 c-4 -6 3 -10 14 -10 25 0 27 6 6 13 -8 4 -17 2 -20 -3z"/>
<path d="M1938 1433 c6 -2 18 -2 25 0 6 3 1 5 -13 5 -14 0 -19 -2 -12 -5z"/>
<path d="M3040 1373 c1 -15 60 -77 66 -70 4 3 -6 22 -22 41 -28 33 -44 44 -44
29z"/>
<path d="M4055 1360 c-3 -5 -1 -10 4 -10 6 0 11 5 11 10 0 6 -2 10 -4 10 -3 0
-8 -4 -11 -10z"/>
<path d="M1904 1344 c3 -9 6 -17 6 -20 0 -2 6 -1 14 2 18 7 9 34 -11 34 -10 0
-13 -6 -9 -16z"/>
<path d="M2736 1308 c23 -28 37 -38 43 -32 6 6 -40 54 -52 54 -6 0 -2 -10 9
-22z"/>
<path d="M1810 1296 c0 -14 28 -42 35 -34 2 2 2 14 -2 26 -6 24 -33 31 -33 8z"/>
<path d="M3570 1274 c0 -8 5 -12 10 -9 6 3 10 10 10 16 0 5 -4 9 -10 9 -5 0
-10 -7 -10 -16z"/>
<path d="M4169 1204 c-9 -12 -5 -13 22 -8 44 9 45 10 14 16 -14 3 -30 -1 -36
-8z"/>
<path d="M4249 1198 c-20 -18 -21 -20 -4 -13 11 4 31 7 45 6 18 0 21 2 11 8
-11 7 -11 9 0 14 9 3 6 6 -7 6 -12 1 -32 -9 -45 -21z"/>
<path d="M4368 1193 c7 -3 16 -2 19 1 4 3 -2 6 -13 5 -11 0 -14 -3 -6 -6z"/>
<path d="M5166 1187 c-16 -12 -16 -14 -2 -26 13 -11 17 -11 22 3 10 26 1 38
-20 23z"/>
<path d="M1908 1169 c-10 -5 -18 -15 -18 -21 0 -6 26 -59 59 -117 32 -58 80
-146 106 -196 43 -83 84 -135 105 -135 4 0 -18 46 -50 103 -165 293 -189 340
-179 359 11 20 3 23 -23 7z"/>
<path d="M4445 1170 c-3 -5 -1 -10 4 -10 6 0 11 5 11 10 0 6 -2 10 -4 10 -3 0
-8 -4 -11 -10z"/>
<path d="M4661 1166 c3 -3 41 -30 85 -60 59 -40 79 -59 78 -75 0 -11 3 -21 7
-21 15 0 39 12 39 20 0 4 -37 32 -82 62 -80 53 -139 88 -127 74z"/>
<path d="M5145 1150 c-3 -5 -1 -10 4 -10 6 0 11 5 11 10 0 6 -2 10 -4 10 -3 0
-8 -4 -11 -10z"/>
<path d="M5155 1130 l-20 -8 20 -8 c11 -4 23 -12 27 -18 4 -6 8 1 8 17 0 29
-3 30 -35 17z"/>
<path d="M4485 1066 c35 -29 85 -59 85 -52 0 7 -96 76 -106 76 -5 0 5 -11 21
-24z"/>
<path d="M5164 1065 c-10 -8 -14 -14 -9 -15 15 0 40 18 34 24 -3 3 -14 -1 -25
-9z"/>
<path d="M5080 1045 c-17 -10 -20 -14 -9 -15 9 0 22 7 29 15 15 18 12 18 -20
0z"/>
<path d="M5163 1031 c-10 -16 -9 -18 8 -14 10 3 19 12 19 19 0 20 -13 17 -27
-5z"/>
<path d="M4099 994 c17 -12 22 -24 19 -45 -5 -33 0 -35 28 -14 18 14 18 16
-14 45 -18 16 -38 30 -44 30 -7 0 -2 -7 11 -16z"/>
<path d="M5170 991 c0 -6 5 -13 10 -16 6 -3 10 1 10 9 0 9 -4 16 -10 16 -5 0
-10 -4 -10 -9z"/>
<path d="M5010 879 c0 -5 5 -7 10 -4 6 3 10 8 10 11 0 2 -4 4 -10 4 -5 0 -10
-5 -10 -11z"/>
<path d="M4875 810 c-4 -6 8 -10 30 -10 22 0 34 4 30 10 -3 6 -17 10 -30 10
-13 0 -27 -4 -30 -10z"/>
<path d="M4815 770 c-3 -5 -2 -10 4 -10 5 0 13 5 16 10 3 6 2 10 -4 10 -5 0
-13 -4 -16 -10z"/>
</g>
</svg>
