<?xml version="1.0" standalone="no"?>
<!DOCTYPE svg PUBLIC "-//W3C//DTD SVG 20010904//EN"
 "http://www.w3.org/TR/2001/REC-SVG-20010904/DTD/svg10.dtd">
<svg version="1.0" xmlns="http://www.w3.org/2000/svg"
 width="937.000000pt" height="408.000000pt" viewBox="0 0 937.000000 408.000000"
 preserveAspectRatio="xMidYMid meet">

<g transform="translate(0.000000,408.000000) scale(0.100000,-0.100000)"
fill="#000000" stroke="none">
<path d="M5973 4039 c-32 -20 -45 -49 -22 -49 21 0 79 41 79 56 0 20 -19 17
-57 -7z"/>
<path d="M4032 3972 c-27 -27 -47 -66 -62 -121 -15 -58 -15 -273 1 -337 14
-55 74 -157 90 -152 16 5 15 7 -27 93 l-39 80 0 140 c0 148 12 203 58 268 25
37 9 59 -21 29z"/>
<path d="M6765 3981 c-3 -5 6 -26 20 -46 36 -54 46 -96 52 -225 6 -130 -10
-217 -53 -282 -26 -41 -31 -68 -11 -68 17 0 62 75 84 140 27 81 26 293 -2 370
-11 30 -26 65 -34 78 -17 28 -47 46 -56 33z"/>
<path d="M3137 3953 c-4 -3 -7 -122 -7 -264 0 -247 1 -259 20 -269 25 -13 83
21 128 76 35 43 82 151 82 190 0 56 -32 165 -58 196 -39 46 -145 92 -165 71z
m118 -76 c42 -42 69 -130 63 -199 -3 -26 -19 -74 -35 -105 -29 -56 -93 -120
-110 -110 -4 3 -7 105 -5 226 l3 221 25 0 c16 0 39 -13 59 -33z"/>
<path d="M3434 3937 c-2 -7 -3 -120 -2 -252 3 -219 5 -240 21 -243 15 -3 17 5
17 57 l0 61 66 0 c85 0 84 23 -2 30 l-59 5 -3 158 -3 157 78 1 c43 1 83 2 88
4 6 1 18 3 28 3 9 1 17 9 17 17 0 13 -20 15 -120 15 -88 0 -122 -3 -126 -13z"/>
<path d="M4367 3943 c-11 -10 -8 -501 2 -508 15 -9 24 15 25 69 l1 51 63 3
c46 2 62 7 62 17 0 12 -14 15 -59 15 -33 0 -62 4 -65 9 -3 5 -3 77 1 160 l6
151 97 0 c75 0 99 3 103 14 3 8 3 17 0 20 -9 8 -228 8 -236 -1z"/>
<path d="M4826 3942 c-7 -12 -10 -502 -2 -509 12 -13 87 21 122 55 43 42 54
69 54 131 0 65 -40 125 -97 147 l-42 16 -3 81 c-2 50 -7 82 -15 84 -6 2 -14 0
-17 -5z m99 -235 c45 -45 53 -91 27 -148 -19 -40 -63 -79 -91 -79 -12 0 -16
241 -4 253 14 14 36 6 68 -26z"/>
<path d="M5414 3936 c-33 -23 -49 -113 -48 -266 0 -152 13 -205 55 -229 24
-13 29 -13 53 2 14 10 38 41 53 70 25 48 27 62 27 172 1 104 -2 128 -22 177
-33 78 -74 104 -118 74z m60 -41 c41 -41 58 -200 35 -317 -13 -63 -48 -115
-71 -105 -35 13 -50 217 -27 357 12 78 31 97 63 65z"/>
<path d="M4700 3931 c-33 -9 -33 -43 0 -61 16 -9 22 -6 35 19 26 51 20 57 -35
42z"/>
<path d="M5677 3922 c-33 -37 -40 -77 -43 -282 -2 -113 0 -211 5 -219 17 -27
31 1 31 65 l0 64 65 0 c49 0 65 3 65 14 0 17 -31 26 -87 26 l-43 0 0 108 c0
141 7 180 36 198 29 20 57 6 76 -36 16 -37 38 -39 38 -4 0 38 -50 84 -93 84
-20 0 -41 -7 -50 -18z"/>
<path d="M5955 3929 c-37 -18 -72 -101 -55 -129 12 -20 27 -4 33 36 8 47 23
64 57 64 53 0 61 -23 58 -171 l-3 -134 -29 3 c-95 10 -168 -76 -118 -139 22
-26 80 -29 117 -5 25 17 35 12 35 -16 0 -10 6 -18 13 -18 11 0 15 44 21 209 5
178 4 216 -9 249 -22 54 -71 75 -120 51z m90 -379 c4 -6 -9 -26 -28 -45 -40
-40 -80 -46 -97 -15 -17 31 27 70 79 70 22 0 43 -5 46 -10z"/>
<path d="M6438 3933 c-22 -3 -28 -10 -28 -28 0 -14 8 -29 19 -34 15 -9 22 -6
35 14 17 25 22 56 9 54 -5 -1 -20 -4 -35 -6z"/>
<path d="M6557 3933 c-2 -4 -4 -120 -3 -258 l1 -250 45 2 c25 1 53 2 63 2 9 1
17 8 17 15 0 11 -14 16 -47 18 l-48 3 0 234 c0 169 -3 235 -12 238 -6 2 -13 0
-16 -4z"/>
<path d="M2750 3675 c0 -220 2 -255 15 -255 13 0 15 24 15 154 0 85 4 157 8
160 4 3 23 -43 41 -102 18 -59 39 -125 45 -147 18 -56 42 -58 56 -3 7 24 23
75 36 115 13 39 24 78 24 86 0 8 7 21 16 28 15 12 16 3 11 -101 -5 -134 0
-190 18 -190 19 0 20 15 20 270 0 225 -1 235 -19 235 -16 0 -25 -22 -56 -141
-48 -182 -70 -248 -80 -237 -9 9 -65 191 -75 243 -16 85 -39 140 -57 140 -17
0 -18 -15 -18 -255z"/>
<path d="M5087 3923 c-11 -11 -8 -501 3 -508 16 -10 18 9 23 185 4 145 7 171
27 213 38 82 98 98 114 31 10 -36 -2 -64 -30 -75 -30 -11 -23 -29 11 -29 14 0
32 11 45 27 26 33 22 78 -10 123 -17 24 -29 30 -59 30 -25 0 -44 -7 -56 -20
-24 -27 -35 -25 -35 5 0 24 -18 34 -33 18z"/>
<path d="M6196 3897 c-34 -45 -47 -112 -48 -247 -2 -171 23 -224 99 -218 33 3
40 8 57 41 25 53 35 167 14 167 -12 0 -18 -16 -23 -57 -10 -85 -29 -125 -57
-121 -41 6 -53 50 -53 193 0 140 19 227 53 240 18 6 41 -17 44 -44 3 -32 4
-36 11 -49 13 -20 27 -4 27 31 0 31 -21 73 -44 89 -24 17 -56 7 -80 -25z"/>
<path d="M4696 3795 c-8 -21 -8 -338 0 -359 3 -9 13 -16 20 -16 12 0 14 32 12
192 -2 131 -7 193 -14 195 -6 2 -14 -3 -18 -12z"/>
<path d="M6426 3795 c-8 -21 -8 -255 0 -322 5 -35 11 -53 21 -53 11 0 13 34
11 192 -2 131 -7 193 -14 195 -6 2 -14 -3 -18 -12z"/>
<path d="M2200 3666 c0 -11 20 -16 83 -20 123 -9 192 -4 192 14 0 12 -23 15
-137 18 -115 2 -138 0 -138 -12z"/>
<path d="M4683 3209 c-35 -13 -51 -48 -69 -149 -26 -150 -7 -374 37 -426 22
-27 75 -17 111 21 48 52 60 94 65 237 5 109 2 136 -15 195 -28 92 -79 141
-129 122z m78 -106 c21 -43 24 -62 24 -173 0 -145 -14 -206 -57 -247 l-30 -28
-18 23 c-26 31 -33 108 -28 275 6 175 25 230 69 206 9 -5 28 -30 40 -56z"/>
<path d="M3780 3194 c-44 -15 -51 -45 -15 -64 25 -13 28 -12 46 10 19 26 25
56 12 63 -5 2 -24 -2 -43 -9z"/>
<path d="M3916 3188 c-3 -13 -7 -145 -10 -295 -3 -201 -1 -274 7 -281 12 -10
134 -8 144 2 3 3 3 12 0 21 -5 11 -21 15 -58 15 l-52 0 6 269 c5 262 3 291
-25 291 -4 0 -10 -10 -12 -22z"/>
<path d="M4206 3201 c-4 -6 -15 -11 -25 -11 -10 0 -24 -7 -31 -16 -11 -13 -10
-19 8 -37 26 -26 51 -16 66 27 11 28 -5 59 -18 37z"/>
<path d="M3415 3188 c-2 -7 -6 -140 -10 -296 -6 -254 -5 -283 10 -288 9 -4 19
-3 23 1 4 3 9 97 12 208 5 170 9 208 24 237 24 47 66 90 86 90 25 0 51 -34 52
-68 1 -37 -7 -51 -39 -63 -27 -10 -26 -32 2 -37 55 -11 98 64 75 132 -13 42
-53 76 -87 76 -28 0 -83 -26 -83 -40 0 -6 -4 -10 -10 -10 -5 0 -10 10 -10 23
0 36 -36 63 -45 35z"/>
<path d="M2871 3178 c-67 -36 -84 -129 -79 -413 3 -152 4 -160 23 -160 18 0
21 8 25 70 l5 70 70 0 70 0 5 -70 c4 -53 9 -70 20 -70 13 0 15 33 18 223 1
128 -2 239 -8 261 -19 71 -96 117 -149 89z m93 -71 c19 -26 21 -42 21 -170 l0
-142 -73 -3 -74 -3 4 149 c2 122 6 153 21 176 24 36 71 33 101 -7z"/>
<path d="M3183 3172 c-80 -61 -100 -458 -28 -536 32 -35 86 -35 120 -2 43 43
72 189 42 215 -21 17 -37 -7 -37 -54 0 -54 -18 -117 -38 -132 -42 -34 -65 -5
-82 100 -11 73 -11 103 2 207 11 87 21 129 35 148 36 48 63 36 70 -32 6 -53
18 -65 40 -43 19 19 12 68 -17 115 -16 26 -26 32 -52 32 -18 0 -43 -8 -55 -18z"/>
<path d="M4375 3166 c-35 -35 -56 -117 -62 -246 -7 -149 9 -253 45 -287 29
-27 77 -30 110 -8 52 37 76 263 24 231 -5 -3 -12 -36 -14 -73 -6 -76 -23 -120
-48 -128 -56 -18 -75 38 -75 220 1 175 30 275 80 275 15 0 33 -41 37 -85 4
-36 31 -41 36 -6 15 101 -70 170 -133 107z"/>
<path d="M3767 3043 c-9 -8 -9 -355 -1 -406 5 -28 11 -37 23 -35 14 3 16 27
13 213 -1 116 -2 216 -2 223 0 13 -22 17 -33 5z"/>
<path d="M4165 2968 c-3 -46 -3 -146 2 -223 7 -114 11 -140 23 -140 13 0 15
31 15 220 0 197 -2 220 -17 223 -13 3 -17 -10 -23 -80z"/>
<path d="M2171 2901 c-8 -5 -11 -16 -8 -25 5 -14 29 -16 162 -16 145 0 155 1
155 19 0 10 -7 22 -16 25 -25 9 -277 7 -293 -3z"/>
<path d="M4021 2381 c-36 -36 -46 -97 -46 -276 0 -187 11 -235 58 -256 63 -29
130 64 148 204 27 209 -74 414 -160 328z m94 -83 c23 -54 32 -224 16 -298 -13
-61 -45 -110 -71 -110 -28 0 -42 53 -47 185 -5 126 14 261 39 276 20 13 45 -8
63 -53z"/>
<path d="M4500 2385 c-9 -11 -13 -60 -14 -168 -1 -128 2 -159 18 -193 19 -45
49 -64 98 -64 30 0 30 -1 25 -36 -3 -20 -14 -45 -23 -55 -22 -25 -60 -24 -74
1 -12 22 -50 27 -50 7 0 -21 54 -67 78 -67 35 0 73 22 88 52 8 15 18 70 23
121 9 97 1 391 -11 402 -22 22 -28 -17 -28 -180 0 -144 -3 -176 -16 -189 -25
-25 -52 -19 -71 17 -15 27 -18 58 -18 194 0 89 -3 164 -6 167 -3 4 -12 0 -19
-9z"/>
<path d="M5827 2279 c-9 -153 -9 -424 -1 -432 3 -3 12 -3 20 0 11 4 14 32 15
127 1 199 11 279 43 321 29 38 50 45 60 19 3 -9 6 -114 6 -235 0 -192 2 -220
16 -226 9 -3 20 0 25 8 4 7 7 95 7 194 -2 173 -1 182 22 223 22 40 54 62 68
47 4 -4 8 -112 10 -240 3 -195 5 -234 18 -239 8 -3 17 0 20 8 3 7 4 117 2 244
-3 210 -5 232 -22 251 -25 28 -58 27 -94 -4 l-29 -24 -23 24 c-27 29 -44 31
-84 10 -36 -19 -34 -20 -38 12 -2 16 -10 29 -19 31 -14 2 -17 -15 -22 -119z"/>
<path d="M6918 2383 c-36 -43 -49 -110 -50 -250 -1 -187 18 -264 69 -284 30
-11 61 6 96 53 49 65 64 283 26 383 -38 102 -100 145 -141 98z m71 -45 c36
-38 46 -87 46 -218 0 -111 -3 -130 -23 -173 -27 -53 -59 -78 -73 -56 -45 69
-42 401 3 457 15 17 24 15 47 -10z"/>
<path d="M3447 2360 c-38 -45 -51 -124 -52 -312 0 -154 2 -169 21 -195 34 -46
94 -44 139 5 27 29 33 62 12 62 -7 0 -24 -13 -39 -30 -44 -50 -88 -34 -91 32
l-2 33 57 3 c82 4 88 16 88 170 0 139 -12 200 -46 237 -30 33 -57 32 -87 -5z
m61 -22 c20 -26 33 -125 30 -228 l-3 -105 -52 -3 -53 -3 0 63 c0 138 31 288
59 288 5 0 13 -6 19 -12z"/>
<path d="M3667 2383 c-10 -17 -18 -538 -9 -552 22 -31 29 8 35 184 5 157 9
192 27 232 27 61 47 83 76 83 55 0 72 -94 22 -118 -31 -15 -36 -30 -12 -39 23
-9 61 16 74 48 39 93 -62 188 -137 129 -34 -26 -41 -25 -45 7 -3 26 -22 42
-31 26z"/>
<path d="M5014 2356 c-29 -29 -34 -41 -34 -80 0 -60 25 -64 35 -5 8 48 35 79
70 79 47 0 56 -32 53 -186 l-3 -139 -60 -6 c-49 -6 -64 -12 -87 -38 -69 -77 4
-168 97 -121 50 26 55 25 55 -4 0 -28 10 -38 27 -28 16 10 20 446 4 493 -13
39 -55 69 -96 69 -17 0 -39 -12 -61 -34z m120 -385 c8 -13 -31 -59 -62 -74
-15 -7 -37 -11 -49 -9 -32 5 -32 55 -1 76 24 17 103 22 112 7z"/>
<path d="M5266 2119 c-5 -167 -4 -275 2 -281 5 -5 38 -8 73 -6 51 2 64 6 67
21 3 14 -4 17 -47 17 l-51 0 0 260 c0 247 -1 260 -19 260 -17 0 -19 -16 -25
-271z"/>
<path d="M5496 2382 c-3 -5 -8 -76 -12 -158 -11 -237 16 -366 81 -396 21 -10
30 -8 53 8 15 11 33 35 41 52 15 33 31 42 31 17 0 -24 22 -65 36 -65 22 0 24
16 9 54 -12 28 -15 82 -15 250 0 220 -3 246 -25 246 -15 0 -19 -30 -35 -252
-11 -147 -27 -226 -55 -262 -14 -18 -16 -18 -33 -3 -38 35 -47 91 -47 306 0
146 -3 205 -12 208 -6 2 -14 0 -17 -5z"/>
<path d="M6273 2383 c-37 -7 -49 -30 -28 -53 26 -28 40 -25 59 14 23 50 23 50
-31 39z"/>
<path d="M6407 2278 c-4 -62 -7 -188 -7 -280 0 -136 3 -168 14 -168 20 0 24
25 25 182 2 165 5 194 33 265 21 55 42 69 82 59 41 -10 46 -43 46 -281 0 -218
1 -225 20 -225 19 0 20 7 20 225 0 242 -6 277 -51 309 -30 20 -78 21 -107 0
-24 -16 -42 -12 -42 12 0 8 -6 14 -13 14 -11 0 -16 -28 -20 -112z"/>
<path d="M6748 2383 c-33 -5 -43 -30 -22 -54 19 -21 23 -22 41 -11 15 9 30 73
17 71 -5 -1 -21 -4 -36 -6z"/>
<path d="M2887 2368 c-17 -6 -36 -26 -49 -51 -20 -39 -22 -60 -26 -264 -4
-217 -4 -223 16 -223 24 0 31 22 25 78 -4 38 -1 43 22 52 37 14 102 12 112 -2
4 -7 8 -37 8 -66 1 -55 16 -84 31 -61 14 23 6 436 -10 472 -25 59 -75 84 -129
65z m69 -46 c28 -18 38 -62 42 -179 5 -139 5 -139 -85 -142 -65 -2 -66 1 -58
151 6 116 10 144 27 166 11 13 56 16 74 4z"/>
<path d="M3180 2352 c-71 -71 -84 -419 -18 -489 30 -33 90 -32 116 2 41 52 57
200 22 200 -11 0 -17 -17 -23 -65 -10 -85 -25 -114 -60 -118 -35 -4 -47 25
-54 138 -10 164 21 308 69 318 18 3 38 -38 38 -79 0 -24 4 -30 18 -27 28 6 23
90 -8 123 -31 33 -65 32 -100 -3z"/>
<path d="M6256 2235 c-8 -21 -8 -183 1 -307 4 -68 10 -98 18 -98 20 0 20 12
15 219 -3 131 -9 196 -16 198 -6 2 -14 -3 -18 -12z"/>
<path d="M6737 2243 c-10 -10 -8 -386 2 -402 5 -8 16 -11 24 -8 12 4 14 36 10
199 -3 106 -6 199 -8 206 -5 13 -18 16 -28 5z"/>
<path d="M2232 2093 c3 -16 19 -18 138 -21 146 -3 163 0 154 23 -5 12 -30 15
-151 15 -132 0 -144 -1 -141 -17z"/>
<path d="M1188 1763 c17 -2 47 -2 65 0 17 2 3 4 -33 4 -36 0 -50 -2 -32 -4z"/>
<path d="M817 1665 l-42 -23 -3 -251 -2 -251 45 0 45 0 2 213 3 212 80 -213
79 -213 36 3 35 3 72 190 c40 105 77 199 82 210 7 14 10 -47 10 -192 l1 -213
60 0 59 0 3 136 3 135 118 -135 118 -136 65 0 c35 0 64 3 64 6 0 3 -59 69
-131 146 l-132 140 97 97 c53 53 96 99 96 102 0 3 -18 14 -41 24 l-41 19 -109
-115 -108 -114 -1 118 c0 134 12 121 -110 117 -36 -1 -68 -7 -72 -13 -4 -6
-35 -89 -69 -184 -34 -95 -65 -173 -68 -173 -3 0 -35 82 -72 182 -64 179 -66
183 -97 189 -23 5 -43 0 -75 -16z"/>
<path d="M4107 1568 c-27 -21 -45 -77 -58 -186 -21 -167 9 -341 63 -361 32
-12 73 11 103 59 57 90 61 341 7 430 -41 67 -78 85 -115 58z m84 -90 c22 -46
24 -65 24 -182 0 -114 -3 -136 -22 -171 -11 -22 -30 -48 -41 -58 -20 -18 -21
-18 -39 9 -16 25 -18 50 -17 214 0 203 8 240 47 240 19 0 29 -11 48 -52z"/>
<path d="M4581 1567 c-14 -18 -25 -217 -16 -301 9 -86 41 -128 98 -128 45 0
49 -5 36 -51 -19 -68 -54 -84 -93 -42 -13 14 -28 25 -35 25 -18 0 -13 -34 9
-58 43 -46 101 -37 143 23 21 28 22 44 26 238 3 221 -3 301 -22 294 -8 -2 -14
-58 -17 -185 -3 -115 -9 -185 -16 -192 -6 -6 -24 -10 -40 -8 -46 5 -57 53 -52
236 3 84 2 155 -2 157 -4 3 -13 -1 -19 -8z"/>
<path d="M5094 1500 c-5 -58 -10 -80 -20 -80 -19 0 -18 -29 1 -36 12 -5 15
-33 15 -166 0 -155 1 -159 25 -183 29 -30 57 -31 100 -5 26 16 36 31 45 70 7
28 10 57 6 65 -8 23 -36 6 -36 -22 0 -56 -54 -109 -86 -82 -19 15 -25 81 -18
203 l7 115 66 3 c58 3 66 5 66 23 0 18 -7 20 -65 20 l-65 1 0 64 c-1 84 -2 90
-19 90 -11 0 -16 -21 -22 -80z"/>
<path d="M3126 1533 c-3 -21 -6 -110 -6 -198 0 -224 28 -325 93 -333 38 -5 62
12 84 60 l20 42 12 -36 c24 -73 68 -77 46 -5 -8 27 -15 127 -19 263 -3 120 -5
225 -6 232 0 21 -29 13 -34 -10 -3 -13 -8 -83 -11 -157 -9 -193 -29 -299 -63
-341 -17 -21 -19 -21 -35 -6 -34 34 -41 86 -42 306 0 189 -2 215 -16 218 -12
2 -18 -7 -23 -35z"/>
<path d="M3539 1557 c-49 -37 -69 -140 -69 -353 l0 -152 29 -31 c32 -34 58
-38 101 -16 37 19 68 73 47 81 -8 3 -28 -9 -45 -25 -17 -17 -37 -31 -46 -31
-19 0 -43 36 -48 70 -3 24 0 25 60 30 70 6 78 12 88 79 10 63 -1 251 -17 286
-28 66 -65 89 -100 62z m61 -72 c10 -21 16 -71 18 -161 4 -148 0 -157 -65
-152 l-38 3 -3 80 c-4 84 11 204 30 243 15 30 39 24 58 -13z"/>
<path d="M5408 1550 c-47 -36 -62 -114 -63 -315 0 -154 3 -185 17 -207 23 -34
67 -44 107 -23 41 21 68 62 52 78 -8 8 -18 3 -41 -21 -47 -52 -82 -41 -95 31
l-7 37 56 0 c90 0 96 11 96 173 0 149 -10 200 -48 240 -31 32 -41 33 -74 7z
m63 -56 c10 -20 14 -66 14 -173 l0 -146 -50 0 -50 0 -3 64 c-3 64 10 172 29
244 12 45 39 50 60 11z"/>
<path d="M5615 1307 c-4 -144 -6 -271 -4 -282 4 -18 11 -20 69 -17 64 4 91 14
76 29 -4 4 -27 7 -52 7 -26 -1 -44 3 -45 10 0 6 0 125 1 264 1 244 1 252 -18
252 -19 0 -20 -11 -27 -263z"/>
<path d="M5891 1542 c-28 -23 -34 -36 -38 -79 -9 -84 23 -77 41 9 4 15 18 35
32 45 24 15 29 15 53 2 34 -19 40 -61 32 -209 l-6 -115 -30 2 c-49 3 -114 -25
-130 -57 -20 -39 -19 -62 6 -94 24 -31 81 -36 117 -10 27 18 54 12 46 -11 -6
-15 21 -33 33 -22 3 3 7 106 10 229 3 189 1 229 -12 266 -28 73 -96 93 -154
44z m108 -391 c30 -19 -41 -91 -90 -91 -33 0 -43 13 -35 46 10 39 89 67 125
45z"/>
<path d="M2930 1547 c-47 -23 -71 -93 -77 -225 -11 -228 14 -312 93 -312 48 0
78 35 94 108 15 73 11 116 -12 120 -15 3 -18 -4 -18 -38 0 -54 -19 -126 -36
-141 -8 -6 -25 -9 -38 -5 -33 8 -50 82 -48 216 2 122 22 207 54 233 22 18 23
18 40 -3 10 -12 18 -37 18 -56 0 -24 5 -34 15 -34 36 0 29 87 -10 126 -27 27
-39 29 -75 11z"/>
<path d="M3738 1548 c-2 -7 -5 -134 -7 -281 -3 -257 -2 -269 16 -265 16 3 19
19 25 193 7 203 14 236 62 288 31 33 51 32 79 -5 25 -33 17 -75 -18 -88 -33
-13 -33 -40 0 -40 30 0 62 29 71 64 14 57 -39 136 -92 136 -12 0 -36 -11 -52
-25 -37 -31 -40 -31 -44 2 -3 29 -32 44 -40 21z"/>
<path d="M2254 1281 c-2 -2 -4 -10 -4 -18 0 -10 32 -13 150 -13 127 0 150 2
150 15 0 8 -8 16 -17 17 -36 4 -275 3 -279 -1z"/>
<path d="M1129 1058 c-12 -23 -12 -23 9 -5 20 18 20 18 11 -20 -35 -139 -35
-200 1 -178 9 6 9 9 -1 16 -11 6 -10 19 4 73 21 81 22 136 2 136 -8 0 -20 -10
-26 -22z"/>
<path d="M1004 1003 c-5 -38 -9 -74 -9 -82 0 -26 21 -22 35 6 23 46 24 49 8
35 -15 -12 -16 -7 -11 48 8 84 -12 78 -23 -7z"/>
<path d="M1401 1008 c-6 -34 -18 -69 -27 -77 -15 -15 -16 -12 -10 29 6 47 2
46 -30 -7 -18 -28 -25 -11 -9 20 14 28 8 36 -13 15 -7 -7 -12 -25 -12 -41 0
-24 3 -28 19 -24 12 3 22 -1 26 -10 5 -14 8 -13 25 2 19 18 20 17 20 -3 0 -12
5 -22 10 -22 6 0 10 12 10 26 l0 25 29 -20 c43 -31 50 -25 11 9 -26 21 -30 29
-18 30 18 0 47 40 29 40 -5 0 -11 -7 -15 -15 -3 -8 -10 -15 -17 -15 -7 0 -9
16 -4 50 10 73 -11 63 -24 -12z"/>
<path d="M1106 1003 c-8 -36 -23 -45 -22 -13 1 10 -3 19 -8 20 -5 0 -11 -22
-13 -50 -3 -32 0 -50 7 -50 14 0 52 88 47 109 -2 9 -7 1 -11 -16z"/>
<path d="M956 1004 c-8 -22 -8 -62 2 -67 4 -3 7 15 7 39 1 49 0 51 -9 28z"/>
<path d="M1193 998 c-20 -42 -22 -56 -8 -75 13 -17 14 -17 40 7 18 17 24 19
20 8 -4 -9 -4 -22 0 -29 5 -7 13 2 20 25 17 47 16 86 -1 86 -8 0 -14 -10 -14
-23 0 -25 -45 -75 -57 -64 -3 4 4 18 17 32 13 14 20 31 17 39 -9 22 -22 20
-34 -6z m18 -11 c-10 -9 -11 -8 -5 6 3 10 9 15 12 12 3 -3 0 -11 -7 -18z"/>
<path d="M1485 988 c-19 -59 10 -97 35 -45 11 21 10 21 -4 3 -20 -25 -29 -16
-17 17 7 17 7 28 1 32 -6 4 -12 0 -15 -7z"/>
<path d="M998 794 c-12 -18 -32 -133 -25 -140 4 -4 16 1 27 11 17 15 25 17 39
8 16 -10 18 -7 19 25 0 34 -1 35 -10 15 -14 -29 -32 -30 -23 -2 5 15 4 19 -4
15 -6 -4 -11 -16 -11 -26 0 -17 -17 -37 -24 -29 -2 2 3 28 10 58 14 52 15 86
2 65z"/>
<path d="M1695 779 c-15 -46 -36 -91 -41 -86 -3 3 -1 15 6 26 6 12 7 21 1 21
-5 0 -14 -13 -19 -29 -11 -32 5 -50 27 -28 8 8 11 5 11 -11 0 -12 4 -22 9 -22
4 0 6 11 3 25 -2 14 1 46 8 71 13 45 8 75 -5 33z"/>
<path d="M1516 773 c-13 -49 -17 -103 -7 -103 6 0 11 3 12 8 0 4 3 31 5 60 4
52 0 67 -10 35z"/>
<path d="M855 770 c-11 -5 -14 -9 -7 -9 9 -1 11 -14 6 -51 -4 -30 -3 -50 3
-50 6 0 10 14 11 30 1 46 12 70 30 70 15 0 15 2 2 10 -17 11 -19 11 -45 0z"/>
<path d="M820 735 c0 -17 -16 -20 -25 -5 -11 18 -23 11 -34 -20 -5 -16 -15
-30 -20 -30 -15 0 -14 37 2 43 6 2 8 8 4 13 -11 11 -37 -23 -37 -48 0 -14 7
-17 39 -15 22 1 43 6 48 10 4 5 0 5 -10 1 -10 -3 -17 -1 -17 5 0 6 4 11 9 11
5 0 17 3 26 7 14 5 16 2 11 -15 -4 -11 -3 -23 2 -26 5 -3 12 8 16 25 9 44 8
59 -4 59 -5 0 -10 -7 -10 -15z"/>
<path d="M899 727 c-6 -14 -9 -33 -5 -42 7 -18 27 -16 34 3 2 8 -3 10 -15 5
-17 -6 -17 -5 1 16 15 16 17 24 8 33 -8 8 -14 4 -23 -15z"/>
<path d="M1087 743 c-14 -25 -18 -76 -6 -84 7 -4 17 -5 21 -3 12 8 10 48 -4
62 -9 9 -9 12 0 12 7 0 12 5 12 10 0 12 -17 13 -23 3z m13 -69 c0 -8 -4 -12
-10 -9 -5 3 -10 13 -10 21 0 8 5 12 10 9 6 -3 10 -13 10 -21z"/>
<path d="M1129 727 c-6 -14 -9 -33 -5 -42 7 -18 27 -16 34 3 2 8 -3 10 -15 5
-17 -6 -17 -5 1 16 15 16 17 24 8 33 -8 8 -14 4 -23 -15z"/>
<path d="M1177 728 c-9 -33 -8 -58 2 -58 11 0 20 56 11 71 -4 6 -10 1 -13 -13z"/>
<path d="M1398 713 c-8 -62 9 -61 19 1 3 22 2 36 -5 36 -5 0 -12 -17 -14 -37z"/>
<path d="M1375 729 c-4 -6 -8 -34 -10 -62 -1 -29 -6 -61 -9 -72 -5 -12 -2 -10
7 5 8 14 18 51 21 83 7 55 4 69 -9 46z"/>
<path d="M1706 715 c-12 -48 12 -60 39 -19 16 26 16 26 -7 20 -12 -3 -17 -3
-10 0 16 8 15 24 -2 24 -8 0 -17 -11 -20 -25z m24 -25 c0 -5 -5 -10 -11 -10
-5 0 -7 5 -4 10 3 6 8 10 11 10 2 0 4 -4 4 -10z"/>
<path d="M1265 712 c-10 -9 -15 -11 -11 -4 4 6 2 12 -3 12 -6 0 -11 -12 -11
-27 0 -25 1 -26 19 -8 20 17 20 16 11 -16 -20 -82 -22 -94 -10 -82 15 14 40
132 30 138 -3 2 -15 -4 -25 -13z"/>
<path d="M1334 705 c-6 -26 0 -44 12 -33 9 10 12 58 3 58 -5 0 -11 -11 -15
-25z"/>
<path d="M1435 709 c-4 -11 -5 -21 -3 -22 1 -1 13 -8 25 -14 26 -15 32 -8 23
32 -6 28 -6 29 -14 8 -4 -13 -12 -23 -17 -23 -6 0 -6 8 1 20 7 12 7 20 1 20
-5 0 -13 -9 -16 -21z"/>
<path d="M1536 722 c-3 -6 -1 -12 5 -14 9 -3 9 -10 -1 -27 -10 -19 -10 -23 2
-19 7 3 15 15 16 27 4 26 -12 49 -22 33z"/>
<path d="M1577 723 c-15 -14 -6 -39 18 -50 24 -11 25 -10 24 25 0 34 -1 35
-11 15 -6 -13 -15 -23 -20 -23 -5 0 -4 9 2 20 10 19 1 28 -13 13z"/>
<path d="M1640 530 c-6 -25 -15 -54 -19 -65 -10 -27 -2 -57 12 -52 7 2 10 14
9 27 -2 13 2 42 8 66 7 23 10 48 7 56 -2 7 -10 -7 -17 -32z"/>
<path d="M641 457 c-14 -78 -14 -109 -2 -87 5 8 11 32 15 52 4 21 12 40 18 44
7 5 9 -2 6 -20 -3 -14 -1 -26 4 -26 5 0 8 15 6 33 -2 20 -8 31 -16 29 -9 -2
-11 4 -7 18 3 11 2 20 -3 20 -6 0 -15 -28 -21 -63z"/>
<path d="M775 500 c-3 -5 -3 -15 0 -20 4 -6 1 -18 -6 -26 -10 -12 -9 -18 3
-30 13 -13 16 -13 27 0 9 11 10 20 2 35 -14 26 -14 44 1 35 7 -4 8 -3 4 4 -9
15 -23 15 -31 2z m15 -62 c0 -18 -2 -20 -9 -8 -6 8 -7 18 -5 22 9 14 14 9 14
-14z"/>
<path d="M912 493 c-9 -13 -14 -15 -18 -5 -10 21 -33 13 -40 -13 -3 -14 -10
-25 -16 -25 -5 0 -6 9 -3 20 4 12 2 20 -5 20 -6 0 -10 -12 -8 -27 2 -21 9 -27
31 -30 22 -3 30 1 34 17 3 11 9 20 14 20 5 0 7 -11 3 -25 -4 -15 -2 -25 5 -25
13 0 24 40 19 69 -3 20 -4 21 -16 4z m-32 -43 c0 -5 -4 -10 -10 -10 -5 0 -10
5 -10 10 0 6 5 10 10 10 6 0 10 -4 10 -10z"/>
<path d="M1050 478 c-8 -18 -21 -34 -27 -36 -18 -5 -16 27 2 34 8 4 12 10 9
15 -9 16 -20 10 -33 -17 -9 -20 -9 -30 0 -40 10 -12 14 -12 29 1 14 13 19 13
23 3 7 -19 14 -8 22 35 9 45 -5 48 -25 5z"/>
<path d="M1102 498 c-27 -27 -6 -82 21 -59 9 7 21 6 39 -3 32 -17 36 -14 30
24 l-4 30 -20 -23 -19 -22 7 25 6 25 -31 -29 c-17 -17 -31 -25 -31 -18 0 6 5
14 10 17 6 4 7 11 4 17 -4 7 -2 8 4 4 7 -4 12 -3 12 3 0 16 -16 21 -28 9z"/>
<path d="M1362 493 c-9 -13 -14 -15 -18 -5 -10 21 -33 13 -40 -13 -3 -14 -10
-25 -16 -25 -5 0 -6 9 -3 20 9 27 -8 26 -20 -2 -13 -29 -35 -35 -35 -10 0 11
6 22 13 25 6 2 8 8 4 13 -11 11 -37 -23 -37 -48 0 -19 34 -25 45 -8 4 6 12 7
18 3 26 -16 59 -12 64 8 3 10 9 19 14 19 5 0 7 -11 3 -25 -4 -15 -2 -25 5 -25
9 0 14 12 26 73 2 9 0 17 -3 17 -4 0 -13 -8 -20 -17z m-32 -43 c0 -5 -5 -10
-11 -10 -5 0 -7 5 -4 10 3 6 8 10 11 10 2 0 4 -4 4 -10z"/>
<path d="M1662 468 c-11 -41 -5 -55 15 -31 8 10 12 12 8 6 -3 -7 -2 -13 3 -13
17 0 22 31 6 37 -8 3 -13 12 -10 19 3 8 1 14 -4 14 -5 0 -13 -15 -18 -32z"/>
<path d="M707 483 c-14 -14 -6 -38 17 -49 22 -10 23 -9 24 25 0 33 -1 34 -10
14 -14 -28 -32 -30 -23 -3 6 20 4 25 -8 13z"/>
<path d="M1456 472 c-8 -26 2 -48 15 -35 6 6 6 19 1 34 l-9 24 -7 -23z"/>
<path d="M1489 483 c-1 -17 -8 -70 -13 -107 -7 -57 12 -31 24 33 13 67 13 81
0 81 -5 0 -10 -3 -11 -7z"/>
<path d="M1557 483 c-14 -14 -6 -38 17 -49 23 -11 24 -9 28 22 4 37 -7 46 -17
14 -3 -11 -11 -20 -16 -20 -6 0 -7 9 -4 20 6 20 4 25 -8 13z"/>
<path d="M1715 454 c-6 -32 -1 -54 9 -43 9 11 16 79 8 79 -6 0 -13 -16 -17
-36z"/>
<path d="M1756 474 c-10 -26 -7 -34 14 -34 11 0 20 -5 20 -12 0 -25 13 3 15
34 l3 32 -20 -25 c-19 -24 -20 -24 -15 -1 6 25 -8 30 -17 6z"/>
<path d="M940 450 c0 -34 7 -38 26 -12 18 23 17 37 -1 22 -13 -11 -14 -10 -9
4 3 9 1 16 -5 16 -6 0 -11 -13 -11 -30z"/>
<path d="M1390 450 c0 -34 7 -38 26 -12 18 23 17 37 -1 22 -13 -11 -14 -10 -9
4 3 9 1 16 -5 16 -6 0 -11 -13 -11 -30z"/>
<path d="M970 419 c0 -5 5 -7 10 -4 6 3 10 8 10 11 0 2 -4 4 -10 4 -5 0 -10
-5 -10 -11z"/>
<path d="M992 148 c-16 -16 -15 -28 3 -28 8 0 15 2 15 4 0 2 3 11 6 20 7 19
-7 21 -24 4z"/>
<path d="M1047 142 c-10 -10 -14 -22 -10 -25 12 -12 20 -8 31 18 14 29 2 33
-21 7z"/>
<path d="M1310 125 c-13 -14 -20 -25 -15 -25 4 0 14 8 22 18 14 16 14 16 9 -2
-6 -16 -4 -17 9 -6 16 13 21 40 7 40 -5 0 -19 -11 -32 -25z"/>
</g>
</svg>
